<mxfile host="app.diagrams.net" modified="2021-05-21T10:58:52.644Z" agent="5.0 (Macintosh; Intel Mac OS X 10_15_7) AppleWebKit/537.36 (KHTML, like Gecko) Chrome/90.0.4430.212 Safari/537.36" etag="n9dEqF3fu9TPA_Gyz4bT" version="14.6.12" type="github">
  <diagram id="C5RBs43oDa-KdzZeNtuy" name="Page-1">
    <mxGraphModel dx="4357" dy="3015" grid="1" gridSize="10" guides="1" tooltips="1" connect="1" arrows="1" fold="1" page="1" pageScale="1" pageWidth="827" pageHeight="1169" math="0" shadow="0">
      <root>
        <mxCell id="WIyWlLk6GJQsqaUBKTNV-0" />
        <mxCell id="WIyWlLk6GJQsqaUBKTNV-1" parent="WIyWlLk6GJQsqaUBKTNV-0" />
        <mxCell id="8bZSMwI0g8y9zJHtoblz-170" value="" style="rounded=1;arcSize=10;dashed=1;dashPattern=8 3 1 3;strokeWidth=2;fontSize=18;fillColor=none;" parent="WIyWlLk6GJQsqaUBKTNV-1" vertex="1">
          <mxGeometry x="2060" y="780" width="880" height="420" as="geometry" />
        </mxCell>
        <mxCell id="8bZSMwI0g8y9zJHtoblz-149" value="" style="rounded=1;arcSize=10;dashed=1;dashPattern=8 3 1 3;strokeWidth=2;fontSize=18;fillColor=none;" parent="WIyWlLk6GJQsqaUBKTNV-1" vertex="1">
          <mxGeometry x="-120" y="676" width="503.06" height="514" as="geometry" />
        </mxCell>
        <mxCell id="8bZSMwI0g8y9zJHtoblz-0" value="" style="rounded=1;arcSize=10;dashed=1;strokeColor=#666666;fillColor=#f5f5f5;dashPattern=8 3 1 3;strokeWidth=2;fontSize=18;fontColor=#333333;" parent="WIyWlLk6GJQsqaUBKTNV-1" vertex="1">
          <mxGeometry x="415" y="1286" width="460" height="470" as="geometry" />
        </mxCell>
        <mxCell id="8bZSMwI0g8y9zJHtoblz-2" value="" style="edgeStyle=orthogonalEdgeStyle;rounded=0;orthogonalLoop=1;jettySize=auto;html=1;" parent="WIyWlLk6GJQsqaUBKTNV-1" source="8bZSMwI0g8y9zJHtoblz-7" target="8bZSMwI0g8y9zJHtoblz-33" edge="1">
          <mxGeometry relative="1" as="geometry" />
        </mxCell>
        <mxCell id="8bZSMwI0g8y9zJHtoblz-3" value="" style="edgeStyle=orthogonalEdgeStyle;rounded=0;orthogonalLoop=1;jettySize=auto;html=1;" parent="WIyWlLk6GJQsqaUBKTNV-1" source="8bZSMwI0g8y9zJHtoblz-8" target="8bZSMwI0g8y9zJHtoblz-34" edge="1">
          <mxGeometry relative="1" as="geometry" />
        </mxCell>
        <mxCell id="8bZSMwI0g8y9zJHtoblz-4" value="" style="rounded=1;arcSize=10;dashed=1;strokeColor=#36393d;fillColor=#f9f7ed;dashPattern=8 3 1 3;strokeWidth=2;fontSize=18;" parent="WIyWlLk6GJQsqaUBKTNV-1" vertex="1">
          <mxGeometry x="414" y="1286" width="460" height="470" as="geometry" />
        </mxCell>
        <mxCell id="8bZSMwI0g8y9zJHtoblz-5" value="" style="edgeStyle=orthogonalEdgeStyle;rounded=0;orthogonalLoop=1;jettySize=auto;html=1;fontSize=18;" parent="WIyWlLk6GJQsqaUBKTNV-1" source="8bZSMwI0g8y9zJHtoblz-7" target="8bZSMwI0g8y9zJHtoblz-72" edge="1">
          <mxGeometry relative="1" as="geometry" />
        </mxCell>
        <mxCell id="8bZSMwI0g8y9zJHtoblz-6" value="" style="edgeStyle=orthogonalEdgeStyle;rounded=0;orthogonalLoop=1;jettySize=auto;html=1;fontSize=18;" parent="WIyWlLk6GJQsqaUBKTNV-1" source="8bZSMwI0g8y9zJHtoblz-8" target="8bZSMwI0g8y9zJHtoblz-73" edge="1">
          <mxGeometry relative="1" as="geometry" />
        </mxCell>
        <mxCell id="8bZSMwI0g8y9zJHtoblz-7" value="&lt;font style=&quot;font-size: 16px&quot;&gt;docData.js&lt;/font&gt;" style="ellipse;whiteSpace=wrap;html=1;fillColor=#ffe6cc;strokeColor=#d79b00;" parent="WIyWlLk6GJQsqaUBKTNV-1" vertex="1">
          <mxGeometry x="578.5" y="428" width="120" height="80" as="geometry" />
        </mxCell>
        <mxCell id="8bZSMwI0g8y9zJHtoblz-8" value="&lt;font style=&quot;font-size: 16px&quot;&gt;docData.js&lt;/font&gt;" style="ellipse;whiteSpace=wrap;html=1;fillColor=#ffe6cc;strokeColor=#d79b00;" parent="WIyWlLk6GJQsqaUBKTNV-1" vertex="1">
          <mxGeometry x="578.5" y="428" width="120" height="80" as="geometry" />
        </mxCell>
        <mxCell id="8bZSMwI0g8y9zJHtoblz-13" value="" style="edgeStyle=orthogonalEdgeStyle;rounded=0;orthogonalLoop=1;jettySize=auto;html=1;" parent="WIyWlLk6GJQsqaUBKTNV-1" source="8bZSMwI0g8y9zJHtoblz-15" target="8bZSMwI0g8y9zJHtoblz-7" edge="1">
          <mxGeometry relative="1" as="geometry" />
        </mxCell>
        <mxCell id="8bZSMwI0g8y9zJHtoblz-14" value="" style="edgeStyle=orthogonalEdgeStyle;rounded=0;orthogonalLoop=1;jettySize=auto;html=1;" parent="WIyWlLk6GJQsqaUBKTNV-1" source="8bZSMwI0g8y9zJHtoblz-16" target="8bZSMwI0g8y9zJHtoblz-8" edge="1">
          <mxGeometry relative="1" as="geometry" />
        </mxCell>
        <mxCell id="8bZSMwI0g8y9zJHtoblz-15" value="&lt;font style=&quot;font-size: 16px&quot;&gt;按钮ButtonsConfig&lt;/font&gt;" style="rounded=1;whiteSpace=wrap;html=1;fillColor=#f5f5f5;strokeColor=#666666;fontColor=#333333;" parent="WIyWlLk6GJQsqaUBKTNV-1" vertex="1">
          <mxGeometry x="576" y="288" width="125" height="60" as="geometry" />
        </mxCell>
        <mxCell id="8bZSMwI0g8y9zJHtoblz-117" value="" style="edgeStyle=orthogonalEdgeStyle;rounded=0;orthogonalLoop=1;jettySize=auto;html=1;" parent="WIyWlLk6GJQsqaUBKTNV-1" source="8bZSMwI0g8y9zJHtoblz-16" target="8bZSMwI0g8y9zJHtoblz-116" edge="1">
          <mxGeometry relative="1" as="geometry">
            <Array as="points">
              <mxPoint x="810" y="318" />
              <mxPoint x="810" y="270" />
            </Array>
          </mxGeometry>
        </mxCell>
        <mxCell id="8bZSMwI0g8y9zJHtoblz-124" value="" style="edgeStyle=orthogonalEdgeStyle;rounded=0;orthogonalLoop=1;jettySize=auto;html=1;" parent="WIyWlLk6GJQsqaUBKTNV-1" source="8bZSMwI0g8y9zJHtoblz-16" edge="1">
          <mxGeometry relative="1" as="geometry">
            <mxPoint x="920" y="370" as="targetPoint" />
            <Array as="points">
              <mxPoint x="810" y="318" />
              <mxPoint x="810" y="370" />
            </Array>
          </mxGeometry>
        </mxCell>
        <mxCell id="8bZSMwI0g8y9zJHtoblz-16" value="&lt;font style=&quot;font-size: 16px&quot;&gt;按钮ButtonsConfig&lt;/font&gt;" style="rounded=1;whiteSpace=wrap;html=1;fillColor=#ffe6cc;strokeColor=#d79b00;" parent="WIyWlLk6GJQsqaUBKTNV-1" vertex="1">
          <mxGeometry x="576" y="288" width="125" height="60" as="geometry" />
        </mxCell>
        <mxCell id="8bZSMwI0g8y9zJHtoblz-31" value="" style="edgeStyle=orthogonalEdgeStyle;rounded=0;orthogonalLoop=1;jettySize=auto;html=1;fontSize=18;" parent="WIyWlLk6GJQsqaUBKTNV-1" source="8bZSMwI0g8y9zJHtoblz-33" edge="1">
          <mxGeometry relative="1" as="geometry">
            <mxPoint x="638.5" y="700" as="targetPoint" />
          </mxGeometry>
        </mxCell>
        <mxCell id="8bZSMwI0g8y9zJHtoblz-32" value="" style="edgeStyle=orthogonalEdgeStyle;rounded=0;orthogonalLoop=1;jettySize=auto;html=1;fontSize=18;" parent="WIyWlLk6GJQsqaUBKTNV-1" source="8bZSMwI0g8y9zJHtoblz-34" edge="1">
          <mxGeometry relative="1" as="geometry">
            <mxPoint x="638.5" y="700" as="targetPoint" />
          </mxGeometry>
        </mxCell>
        <mxCell id="8bZSMwI0g8y9zJHtoblz-33" value="&lt;font style=&quot;font-size: 18px&quot;&gt;菜单Menu.vue&lt;/font&gt;" style="rounded=1;whiteSpace=wrap;html=1;fillColor=#dae8fc;strokeColor=#6c8ebf;" parent="WIyWlLk6GJQsqaUBKTNV-1" vertex="1">
          <mxGeometry x="553.5" y="570" width="170" height="60" as="geometry" />
        </mxCell>
        <mxCell id="8bZSMwI0g8y9zJHtoblz-34" value="&lt;font style=&quot;font-size: 18px&quot;&gt;菜单Menu.vue&lt;/font&gt;" style="rounded=1;whiteSpace=wrap;html=1;fillColor=#e1d5e7;strokeColor=#9673a6;" parent="WIyWlLk6GJQsqaUBKTNV-1" vertex="1">
          <mxGeometry x="553.5" y="570" width="170" height="60" as="geometry" />
        </mxCell>
        <mxCell id="8bZSMwI0g8y9zJHtoblz-37" value="" style="edgeStyle=orthogonalEdgeStyle;rounded=0;orthogonalLoop=1;jettySize=auto;html=1;fontSize=18;" parent="WIyWlLk6GJQsqaUBKTNV-1" source="8bZSMwI0g8y9zJHtoblz-39" target="8bZSMwI0g8y9zJHtoblz-45" edge="1">
          <mxGeometry relative="1" as="geometry" />
        </mxCell>
        <mxCell id="8bZSMwI0g8y9zJHtoblz-38" value="" style="edgeStyle=orthogonalEdgeStyle;rounded=0;orthogonalLoop=1;jettySize=auto;html=1;fontSize=18;" parent="WIyWlLk6GJQsqaUBKTNV-1" source="8bZSMwI0g8y9zJHtoblz-40" target="8bZSMwI0g8y9zJHtoblz-46" edge="1">
          <mxGeometry relative="1" as="geometry" />
        </mxCell>
        <mxCell id="8bZSMwI0g8y9zJHtoblz-39" value="edit.vue初始化" style="shape=hexagon;perimeter=hexagonPerimeter2;whiteSpace=wrap;html=1;fixedSize=1;fontSize=18;fillColor=#d5e8d4;strokeColor=#82b366;" parent="WIyWlLk6GJQsqaUBKTNV-1" vertex="1">
          <mxGeometry x="557.75" y="910" width="161.5" height="80" as="geometry" />
        </mxCell>
        <mxCell id="8bZSMwI0g8y9zJHtoblz-41" value="复制" style="shape=note;whiteSpace=wrap;html=1;backgroundOutline=1;darkOpacity=0.05;fontSize=18;" parent="WIyWlLk6GJQsqaUBKTNV-1" vertex="1">
          <mxGeometry x="631" y="1341" width="80" height="100" as="geometry" />
        </mxCell>
        <mxCell id="8bZSMwI0g8y9zJHtoblz-42" value="复制" style="shape=note;whiteSpace=wrap;html=1;backgroundOutline=1;darkOpacity=0.05;fontSize=18;fillColor=#ffe6cc;strokeColor=#d79b00;" parent="WIyWlLk6GJQsqaUBKTNV-1" vertex="1">
          <mxGeometry x="631" y="1341" width="80" height="100" as="geometry" />
        </mxCell>
        <mxCell id="8bZSMwI0g8y9zJHtoblz-44" value="" style="edgeStyle=orthogonalEdgeStyle;rounded=0;orthogonalLoop=1;jettySize=auto;html=1;fontSize=18;" parent="WIyWlLk6GJQsqaUBKTNV-1" source="8bZSMwI0g8y9zJHtoblz-46" target="8bZSMwI0g8y9zJHtoblz-4" edge="1">
          <mxGeometry relative="1" as="geometry">
            <Array as="points">
              <mxPoint x="640" y="1230" />
              <mxPoint x="640" y="1230" />
            </Array>
          </mxGeometry>
        </mxCell>
        <mxCell id="8bZSMwI0g8y9zJHtoblz-45" value="$route.query" style="shape=hexagon;perimeter=hexagonPerimeter2;whiteSpace=wrap;html=1;fixedSize=1;fontSize=18;" parent="WIyWlLk6GJQsqaUBKTNV-1" vertex="1">
          <mxGeometry x="557.75" y="1080" width="160" height="80" as="geometry" />
        </mxCell>
        <mxCell id="8bZSMwI0g8y9zJHtoblz-147" value="" style="edgeStyle=orthogonalEdgeStyle;rounded=0;orthogonalLoop=1;jettySize=auto;html=1;strokeColor=#857135;" parent="WIyWlLk6GJQsqaUBKTNV-1" source="8bZSMwI0g8y9zJHtoblz-46" target="8bZSMwI0g8y9zJHtoblz-40" edge="1">
          <mxGeometry relative="1" as="geometry" />
        </mxCell>
        <mxCell id="8bZSMwI0g8y9zJHtoblz-46" value="$route.query" style="shape=hexagon;perimeter=hexagonPerimeter2;whiteSpace=wrap;html=1;fixedSize=1;fontSize=18;" parent="WIyWlLk6GJQsqaUBKTNV-1" vertex="1">
          <mxGeometry x="557.75" y="1080" width="160" height="80" as="geometry" />
        </mxCell>
        <mxCell id="8bZSMwI0g8y9zJHtoblz-47" value="mode:copy" style="text;html=1;align=center;verticalAlign=middle;resizable=0;points=[];autosize=1;fontSize=18;" parent="WIyWlLk6GJQsqaUBKTNV-1" vertex="1">
          <mxGeometry x="505" y="1342" width="100" height="30" as="geometry" />
        </mxCell>
        <mxCell id="8bZSMwI0g8y9zJHtoblz-48" value="mode:copy" style="text;html=1;align=center;verticalAlign=middle;resizable=0;points=[];autosize=1;fontSize=18;" parent="WIyWlLk6GJQsqaUBKTNV-1" vertex="1">
          <mxGeometry x="505" y="1342" width="100" height="30" as="geometry" />
        </mxCell>
        <mxCell id="8bZSMwI0g8y9zJHtoblz-49" value="" style="edgeStyle=orthogonalEdgeStyle;rounded=0;orthogonalLoop=1;jettySize=auto;html=1;fontSize=18;exitX=0.813;exitY=0;exitDx=0;exitDy=0;exitPerimeter=0;" parent="WIyWlLk6GJQsqaUBKTNV-1" edge="1">
          <mxGeometry relative="1" as="geometry">
            <mxPoint x="474" y="1521.08" as="sourcePoint" />
            <mxPoint x="629" y="1521.1428571428569" as="targetPoint" />
            <Array as="points">
              <mxPoint x="509" y="1521" />
              <mxPoint x="509" y="1521" />
            </Array>
          </mxGeometry>
        </mxCell>
        <mxCell id="8bZSMwI0g8y9zJHtoblz-50" value="" style="edgeStyle=orthogonalEdgeStyle;rounded=0;orthogonalLoop=1;jettySize=auto;html=1;fontSize=18;exitX=0.813;exitY=0;exitDx=0;exitDy=0;exitPerimeter=0;" parent="WIyWlLk6GJQsqaUBKTNV-1" edge="1">
          <mxGeometry relative="1" as="geometry">
            <mxPoint x="474" y="1521.08" as="sourcePoint" />
            <mxPoint x="629" y="1521.1428571428569" as="targetPoint" />
            <Array as="points">
              <mxPoint x="509" y="1521" />
              <mxPoint x="509" y="1521" />
            </Array>
          </mxGeometry>
        </mxCell>
        <mxCell id="8bZSMwI0g8y9zJHtoblz-51" value="" style="line;strokeWidth=2;direction=south;html=1;fontSize=18;" parent="WIyWlLk6GJQsqaUBKTNV-1" vertex="1">
          <mxGeometry x="470" y="1391" width="10" height="280" as="geometry" />
        </mxCell>
        <mxCell id="8bZSMwI0g8y9zJHtoblz-52" value="" style="line;strokeWidth=2;direction=south;html=1;fontSize=18;" parent="WIyWlLk6GJQsqaUBKTNV-1" vertex="1">
          <mxGeometry x="470" y="1391" width="10" height="280" as="geometry" />
        </mxCell>
        <mxCell id="8bZSMwI0g8y9zJHtoblz-53" value="mode:edit" style="text;html=1;align=center;verticalAlign=middle;resizable=0;points=[];autosize=1;fontSize=18;" parent="WIyWlLk6GJQsqaUBKTNV-1" vertex="1">
          <mxGeometry x="515" y="1486" width="90" height="30" as="geometry" />
        </mxCell>
        <mxCell id="8bZSMwI0g8y9zJHtoblz-54" value="mode:edit" style="text;html=1;align=center;verticalAlign=middle;resizable=0;points=[];autosize=1;fontSize=18;" parent="WIyWlLk6GJQsqaUBKTNV-1" vertex="1">
          <mxGeometry x="515" y="1486" width="90" height="30" as="geometry" />
        </mxCell>
        <mxCell id="8bZSMwI0g8y9zJHtoblz-55" value="编辑" style="shape=note;whiteSpace=wrap;html=1;backgroundOutline=1;darkOpacity=0.05;fontSize=18;" parent="WIyWlLk6GJQsqaUBKTNV-1" vertex="1">
          <mxGeometry x="630" y="1471" width="80" height="100" as="geometry" />
        </mxCell>
        <mxCell id="8bZSMwI0g8y9zJHtoblz-56" value="编辑" style="shape=note;whiteSpace=wrap;html=1;backgroundOutline=1;darkOpacity=0.05;fontSize=18;fillColor=#ffe6cc;strokeColor=#d79b00;" parent="WIyWlLk6GJQsqaUBKTNV-1" vertex="1">
          <mxGeometry x="630" y="1471" width="80" height="100" as="geometry" />
        </mxCell>
        <mxCell id="8bZSMwI0g8y9zJHtoblz-57" value="添加" style="shape=note;whiteSpace=wrap;html=1;backgroundOutline=1;darkOpacity=0.05;fontSize=18;" parent="WIyWlLk6GJQsqaUBKTNV-1" vertex="1">
          <mxGeometry x="632" y="1601" width="80" height="100" as="geometry" />
        </mxCell>
        <mxCell id="8bZSMwI0g8y9zJHtoblz-58" value="添加" style="shape=note;whiteSpace=wrap;html=1;backgroundOutline=1;darkOpacity=0.05;fontSize=18;fillColor=#ffe6cc;strokeColor=#d79b00;" parent="WIyWlLk6GJQsqaUBKTNV-1" vertex="1">
          <mxGeometry x="632" y="1601" width="80" height="100" as="geometry" />
        </mxCell>
        <mxCell id="8bZSMwI0g8y9zJHtoblz-59" value="" style="edgeStyle=orthogonalEdgeStyle;rounded=0;orthogonalLoop=1;jettySize=auto;html=1;fontSize=18;exitX=0.813;exitY=0;exitDx=0;exitDy=0;exitPerimeter=0;" parent="WIyWlLk6GJQsqaUBKTNV-1" edge="1">
          <mxGeometry relative="1" as="geometry">
            <mxPoint x="475" y="1671.0000000000005" as="sourcePoint" />
            <mxPoint x="630" y="1671.0628571428574" as="targetPoint" />
            <Array as="points">
              <mxPoint x="510" y="1670.92" />
              <mxPoint x="510" y="1670.92" />
            </Array>
          </mxGeometry>
        </mxCell>
        <mxCell id="8bZSMwI0g8y9zJHtoblz-60" value="" style="edgeStyle=orthogonalEdgeStyle;rounded=0;orthogonalLoop=1;jettySize=auto;html=1;fontSize=18;exitX=0.813;exitY=0;exitDx=0;exitDy=0;exitPerimeter=0;" parent="WIyWlLk6GJQsqaUBKTNV-1" edge="1">
          <mxGeometry relative="1" as="geometry">
            <mxPoint x="475" y="1671.0000000000005" as="sourcePoint" />
            <mxPoint x="630" y="1671.0628571428574" as="targetPoint" />
            <Array as="points">
              <mxPoint x="510" y="1670.92" />
              <mxPoint x="510" y="1670.92" />
            </Array>
          </mxGeometry>
        </mxCell>
        <mxCell id="8bZSMwI0g8y9zJHtoblz-61" value="&lt;meta charset=&quot;utf-8&quot;&gt;&lt;span style=&quot;color: rgb(0, 0, 0); font-family: helvetica; font-size: 18px; font-style: normal; font-weight: 400; letter-spacing: normal; text-align: center; text-indent: 0px; text-transform: none; word-spacing: 0px; background-color: rgb(248, 249, 250); display: inline; float: none;&quot;&gt;mode:add&lt;/span&gt;" style="text;whiteSpace=wrap;html=1;fontSize=18;" parent="WIyWlLk6GJQsqaUBKTNV-1" vertex="1">
          <mxGeometry x="515" y="1621" width="110" height="40" as="geometry" />
        </mxCell>
        <mxCell id="8bZSMwI0g8y9zJHtoblz-62" value="&lt;meta charset=&quot;utf-8&quot;&gt;&lt;span style=&quot;color: rgb(0, 0, 0); font-family: helvetica; font-size: 18px; font-style: normal; font-weight: 400; letter-spacing: normal; text-align: center; text-indent: 0px; text-transform: none; word-spacing: 0px; background-color: rgb(248, 249, 250); display: inline; float: none;&quot;&gt;mode:add&lt;/span&gt;" style="text;whiteSpace=wrap;html=1;fontSize=18;" parent="WIyWlLk6GJQsqaUBKTNV-1" vertex="1">
          <mxGeometry x="515" y="1621" width="110" height="40" as="geometry" />
        </mxCell>
        <mxCell id="8bZSMwI0g8y9zJHtoblz-63" value="" style="shape=partialRectangle;whiteSpace=wrap;html=1;bottom=1;right=1;left=1;top=0;fillColor=none;routingCenterX=-0.5;fontSize=18;direction=north;" parent="WIyWlLk6GJQsqaUBKTNV-1" vertex="1">
          <mxGeometry x="715" y="1396" width="70" height="120" as="geometry" />
        </mxCell>
        <mxCell id="8bZSMwI0g8y9zJHtoblz-64" value="" style="shape=partialRectangle;whiteSpace=wrap;html=1;bottom=1;right=1;left=1;top=0;fillColor=none;routingCenterX=-0.5;fontSize=18;direction=north;" parent="WIyWlLk6GJQsqaUBKTNV-1" vertex="1">
          <mxGeometry x="715" y="1396" width="70" height="120" as="geometry" />
        </mxCell>
        <mxCell id="8bZSMwI0g8y9zJHtoblz-65" value="" style="edgeStyle=orthogonalEdgeStyle;rounded=0;orthogonalLoop=1;jettySize=auto;html=1;fontSize=18;" parent="WIyWlLk6GJQsqaUBKTNV-1" source="8bZSMwI0g8y9zJHtoblz-67" target="8bZSMwI0g8y9zJHtoblz-63" edge="1">
          <mxGeometry relative="1" as="geometry">
            <Array as="points">
              <mxPoint x="1260" y="1454" />
              <mxPoint x="1260" y="1454" />
            </Array>
          </mxGeometry>
        </mxCell>
        <mxCell id="8bZSMwI0g8y9zJHtoblz-66" value="" style="edgeStyle=orthogonalEdgeStyle;rounded=0;orthogonalLoop=1;jettySize=auto;html=1;fontSize=18;" parent="WIyWlLk6GJQsqaUBKTNV-1" target="8bZSMwI0g8y9zJHtoblz-64" edge="1">
          <mxGeometry relative="1" as="geometry">
            <mxPoint x="980" y="1454.5" as="sourcePoint" />
          </mxGeometry>
        </mxCell>
        <mxCell id="8bZSMwI0g8y9zJHtoblz-67" value="历史数据" style="shape=cylinder;whiteSpace=wrap;html=1;boundedLbl=1;backgroundOutline=1;fontSize=18;fillColor=none;" parent="WIyWlLk6GJQsqaUBKTNV-1" vertex="1">
          <mxGeometry x="1540" y="1431" width="80" height="115" as="geometry" />
        </mxCell>
        <mxCell id="8bZSMwI0g8y9zJHtoblz-68" value="" style="edgeStyle=orthogonalEdgeStyle;rounded=0;orthogonalLoop=1;jettySize=auto;html=1;fontSize=18;entryX=0.5;entryY=0;entryDx=0;entryDy=0;" parent="WIyWlLk6GJQsqaUBKTNV-1" source="8bZSMwI0g8y9zJHtoblz-70" target="8bZSMwI0g8y9zJHtoblz-39" edge="1">
          <mxGeometry relative="1" as="geometry">
            <mxPoint x="638.5" y="840" as="targetPoint" />
          </mxGeometry>
        </mxCell>
        <mxCell id="8bZSMwI0g8y9zJHtoblz-69" value="" style="edgeStyle=orthogonalEdgeStyle;rounded=0;orthogonalLoop=1;jettySize=auto;html=1;fontSize=18;entryX=0.5;entryY=0;entryDx=0;entryDy=0;" parent="WIyWlLk6GJQsqaUBKTNV-1" source="8bZSMwI0g8y9zJHtoblz-71" target="8bZSMwI0g8y9zJHtoblz-40" edge="1">
          <mxGeometry relative="1" as="geometry">
            <mxPoint x="638.5" y="840" as="targetPoint" />
          </mxGeometry>
        </mxCell>
        <mxCell id="8bZSMwI0g8y9zJHtoblz-70" value="&lt;span style=&quot;font-size: 18px&quot;&gt;拖拽&lt;/span&gt;" style="rounded=1;whiteSpace=wrap;html=1;fillColor=#dae8fc;strokeColor=#6c8ebf;" parent="WIyWlLk6GJQsqaUBKTNV-1" vertex="1">
          <mxGeometry x="553.5" y="700" width="170" height="60" as="geometry" />
        </mxCell>
        <mxCell id="8bZSMwI0g8y9zJHtoblz-71" value="&lt;span style=&quot;font-size: 18px&quot;&gt;拖拽&lt;/span&gt;" style="rounded=1;whiteSpace=wrap;html=1;fillColor=#e1d5e7;strokeColor=#9673a6;" parent="WIyWlLk6GJQsqaUBKTNV-1" vertex="1">
          <mxGeometry x="553.5" y="700" width="170" height="60" as="geometry" />
        </mxCell>
        <mxCell id="8bZSMwI0g8y9zJHtoblz-72" value="渲染config" style="rounded=1;whiteSpace=wrap;html=1;fontSize=18;" parent="WIyWlLk6GJQsqaUBKTNV-1" vertex="1">
          <mxGeometry x="790" y="438" width="120" height="60" as="geometry" />
        </mxCell>
        <mxCell id="8bZSMwI0g8y9zJHtoblz-73" value="渲染config" style="rounded=1;whiteSpace=wrap;html=1;fontSize=18;fillColor=#ffe6cc;strokeColor=#d79b00;" parent="WIyWlLk6GJQsqaUBKTNV-1" vertex="1">
          <mxGeometry x="790" y="438" width="120" height="60" as="geometry" />
        </mxCell>
        <mxCell id="8bZSMwI0g8y9zJHtoblz-74" value="" style="edgeStyle=orthogonalEdgeStyle;rounded=0;orthogonalLoop=1;jettySize=auto;html=1;fontSize=18;" parent="WIyWlLk6GJQsqaUBKTNV-1" target="8bZSMwI0g8y9zJHtoblz-76" edge="1">
          <mxGeometry relative="1" as="geometry">
            <mxPoint x="1580" y="1651" as="sourcePoint" />
          </mxGeometry>
        </mxCell>
        <mxCell id="8bZSMwI0g8y9zJHtoblz-75" value="save" style="text;html=1;align=center;verticalAlign=middle;resizable=0;points=[];autosize=1;fontSize=18;" parent="WIyWlLk6GJQsqaUBKTNV-1" vertex="1">
          <mxGeometry x="1183" y="1619" width="50" height="30" as="geometry" />
        </mxCell>
        <mxCell id="8bZSMwI0g8y9zJHtoblz-76" value="json_schema" style="shape=cylinder;whiteSpace=wrap;html=1;boundedLbl=1;backgroundOutline=1;fontSize=18;" parent="WIyWlLk6GJQsqaUBKTNV-1" vertex="1">
          <mxGeometry x="1770" y="1546" width="150" height="210" as="geometry" />
        </mxCell>
        <mxCell id="8bZSMwI0g8y9zJHtoblz-78" style="edgeStyle=orthogonalEdgeStyle;rounded=0;orthogonalLoop=1;jettySize=auto;html=1;fontSize=18;exitX=1.002;exitY=0.781;exitDx=0;exitDy=0;exitPerimeter=0;" parent="WIyWlLk6GJQsqaUBKTNV-1" source="8bZSMwI0g8y9zJHtoblz-4" target="8bZSMwI0g8y9zJHtoblz-67" edge="1">
          <mxGeometry relative="1" as="geometry">
            <mxPoint x="1630" y="1537" as="targetPoint" />
            <mxPoint x="1260" y="1650" as="sourcePoint" />
            <Array as="points">
              <mxPoint x="1580" y="1650" />
            </Array>
          </mxGeometry>
        </mxCell>
        <mxCell id="8bZSMwI0g8y9zJHtoblz-80" value="" style="line;strokeWidth=2;html=1;fontSize=18;" parent="WIyWlLk6GJQsqaUBKTNV-1" vertex="1">
          <mxGeometry x="471" y="1386" width="160" height="10" as="geometry" />
        </mxCell>
        <mxCell id="8bZSMwI0g8y9zJHtoblz-81" value="" style="line;strokeWidth=2;html=1;fontSize=18;" parent="WIyWlLk6GJQsqaUBKTNV-1" vertex="1">
          <mxGeometry x="471" y="1386" width="160" height="10" as="geometry" />
        </mxCell>
        <mxCell id="8bZSMwI0g8y9zJHtoblz-94" value="" style="edgeStyle=orthogonalEdgeStyle;rounded=0;orthogonalLoop=1;jettySize=auto;html=1;fontSize=18;" parent="WIyWlLk6GJQsqaUBKTNV-1" source="8bZSMwI0g8y9zJHtoblz-95" target="8bZSMwI0g8y9zJHtoblz-101" edge="1">
          <mxGeometry relative="1" as="geometry" />
        </mxCell>
        <mxCell id="8bZSMwI0g8y9zJHtoblz-95" value="weChart组件&lt;br&gt;配置config" style="whiteSpace=wrap;html=1;fontSize=18;strokeColor=#36393d;strokeWidth=2;fillColor=#cdeb8b;" parent="WIyWlLk6GJQsqaUBKTNV-1" vertex="1">
          <mxGeometry x="12" y="932" width="230" height="60" as="geometry" />
        </mxCell>
        <mxCell id="8bZSMwI0g8y9zJHtoblz-96" value="" style="endArrow=classic;startArrow=classic;html=1;fontSize=18;edgeStyle=elbowEdgeStyle;elbow=vertical;" parent="WIyWlLk6GJQsqaUBKTNV-1" edge="1">
          <mxGeometry width="50" height="50" relative="1" as="geometry">
            <mxPoint x="302" y="470" as="sourcePoint" />
            <mxPoint x="130" y="660" as="targetPoint" />
            <Array as="points">
              <mxPoint x="294" y="535" />
              <mxPoint x="172" y="535" />
              <mxPoint x="212" y="535" />
            </Array>
          </mxGeometry>
        </mxCell>
        <mxCell id="8bZSMwI0g8y9zJHtoblz-98" value="Module" style="whiteSpace=wrap;html=1;fontSize=18;strokeColor=#6c8ebf;strokeWidth=2;fillColor=#dae8fc;" parent="WIyWlLk6GJQsqaUBKTNV-1" vertex="1">
          <mxGeometry x="890" y="920" width="120" height="60" as="geometry" />
        </mxCell>
        <mxCell id="8bZSMwI0g8y9zJHtoblz-99" value="" style="endArrow=classic;startArrow=classic;html=1;fontSize=18;" parent="WIyWlLk6GJQsqaUBKTNV-1" edge="1">
          <mxGeometry width="50" height="50" relative="1" as="geometry">
            <mxPoint x="720" y="946.9899999999998" as="sourcePoint" />
            <mxPoint x="883.5" y="946.8199999999997" as="targetPoint" />
          </mxGeometry>
        </mxCell>
        <mxCell id="8bZSMwI0g8y9zJHtoblz-100" value="渲染property" style="whiteSpace=wrap;html=1;fontSize=18;strokeColor=#6c8ebf;strokeWidth=2;fillColor=#dae8fc;" parent="WIyWlLk6GJQsqaUBKTNV-1" vertex="1">
          <mxGeometry x="1190" y="920" width="180" height="60" as="geometry" />
        </mxCell>
        <mxCell id="8bZSMwI0g8y9zJHtoblz-101" value="点击送审出toast：文本框标红+错误信息展示" style="whiteSpace=wrap;html=1;fontSize=18;strokeColor=#36393d;strokeWidth=2;fillColor=#cdeb8b;" parent="WIyWlLk6GJQsqaUBKTNV-1" vertex="1">
          <mxGeometry x="-48" y="732" width="350" height="90" as="geometry" />
        </mxCell>
        <mxCell id="8bZSMwI0g8y9zJHtoblz-102" value="" style="edgeStyle=orthogonalEdgeStyle;rounded=0;orthogonalLoop=1;jettySize=auto;html=1;fontSize=18;" parent="WIyWlLk6GJQsqaUBKTNV-1" source="8bZSMwI0g8y9zJHtoblz-103" target="8bZSMwI0g8y9zJHtoblz-95" edge="1">
          <mxGeometry relative="1" as="geometry" />
        </mxCell>
        <mxCell id="8bZSMwI0g8y9zJHtoblz-103" value="交互事件，校验信息配置" style="whiteSpace=wrap;html=1;fontSize=18;strokeColor=#36393d;strokeWidth=2;fillColor=#cdeb8b;" parent="WIyWlLk6GJQsqaUBKTNV-1" vertex="1">
          <mxGeometry x="12" y="1092" width="230" height="60" as="geometry" />
        </mxCell>
        <mxCell id="8bZSMwI0g8y9zJHtoblz-106" value="拿到历史数据，判断是否有rules校验信息，如果没有，则添加" style="shape=callout;whiteSpace=wrap;html=1;perimeter=calloutPerimeter;fontSize=18;position2=0.05;size=20;position=0.1;base=10;fillColor=#e1d5e7;strokeColor=#9673a6;" parent="WIyWlLk6GJQsqaUBKTNV-1" vertex="1">
          <mxGeometry x="1560" y="1302" width="290" height="115" as="geometry" />
        </mxCell>
        <mxCell id="8bZSMwI0g8y9zJHtoblz-107" value="" style="endArrow=classic;startArrow=classic;html=1;fontSize=18;" parent="WIyWlLk6GJQsqaUBKTNV-1" edge="1">
          <mxGeometry width="50" height="50" relative="1" as="geometry">
            <mxPoint x="1020" y="949.3400000000001" as="sourcePoint" />
            <mxPoint x="1183.5" y="949.1699999999996" as="targetPoint" />
          </mxGeometry>
        </mxCell>
        <mxCell id="8bZSMwI0g8y9zJHtoblz-166" value="" style="edgeStyle=orthogonalEdgeStyle;rounded=0;orthogonalLoop=1;jettySize=auto;html=1;strokeColor=#857135;" parent="WIyWlLk6GJQsqaUBKTNV-1" source="8bZSMwI0g8y9zJHtoblz-108" target="8bZSMwI0g8y9zJHtoblz-165" edge="1">
          <mxGeometry relative="1" as="geometry" />
        </mxCell>
        <mxCell id="8bZSMwI0g8y9zJHtoblz-108" value="WeChart组件" style="whiteSpace=wrap;html=1;fontSize=18;strokeColor=#6c8ebf;strokeWidth=2;fillColor=#dae8fc;" parent="WIyWlLk6GJQsqaUBKTNV-1" vertex="1">
          <mxGeometry x="1550" y="918" width="180" height="60" as="geometry" />
        </mxCell>
        <mxCell id="8bZSMwI0g8y9zJHtoblz-109" value="" style="endArrow=classic;startArrow=classic;html=1;fontSize=18;" parent="WIyWlLk6GJQsqaUBKTNV-1" edge="1">
          <mxGeometry width="50" height="50" relative="1" as="geometry">
            <mxPoint x="1376.5" y="949.75" as="sourcePoint" />
            <mxPoint x="1540" y="949.5799999999995" as="targetPoint" />
          </mxGeometry>
        </mxCell>
        <mxCell id="8bZSMwI0g8y9zJHtoblz-110" value="Actor" style="shape=umlActor;verticalLabelPosition=bottom;verticalAlign=top;html=1;outlineConnect=0;fontSize=18;" parent="WIyWlLk6GJQsqaUBKTNV-1" vertex="1">
          <mxGeometry x="1090" y="1384" width="30" height="60" as="geometry" />
        </mxCell>
        <mxCell id="8bZSMwI0g8y9zJHtoblz-111" value="" style="edgeStyle=orthogonalEdgeStyle;rounded=0;orthogonalLoop=1;jettySize=auto;html=1;fontSize=18;" parent="WIyWlLk6GJQsqaUBKTNV-1" source="8bZSMwI0g8y9zJHtoblz-112" target="8bZSMwI0g8y9zJHtoblz-113" edge="1">
          <mxGeometry relative="1" as="geometry" />
        </mxCell>
        <mxCell id="8bZSMwI0g8y9zJHtoblz-112" value="在编辑或复制页面时劫持数据库里面的&lt;br&gt;docData,对其改造，添加上新增property和config" style="text;html=1;align=center;verticalAlign=middle;resizable=0;points=[];autosize=1;fontSize=18;" parent="WIyWlLk6GJQsqaUBKTNV-1" vertex="1">
          <mxGeometry x="1120" y="1389" width="400" height="50" as="geometry" />
        </mxCell>
        <mxCell id="8bZSMwI0g8y9zJHtoblz-113" value="历史数据兼容" style="ellipse;shape=cloud;whiteSpace=wrap;html=1;fontSize=18;" parent="WIyWlLk6GJQsqaUBKTNV-1" vertex="1">
          <mxGeometry x="1010" y="1190" width="230" height="120" as="geometry" />
        </mxCell>
        <mxCell id="8bZSMwI0g8y9zJHtoblz-114" value="&lt;font style=&quot;font-size: 53px&quot;&gt;QQ直达链接的数据流图&lt;/font&gt;" style="text;html=1;align=center;verticalAlign=middle;resizable=0;points=[];autosize=1;fontSize=18;" parent="WIyWlLk6GJQsqaUBKTNV-1" vertex="1">
          <mxGeometry x="-1210" y="90" width="570" height="40" as="geometry" />
        </mxCell>
        <mxCell id="8bZSMwI0g8y9zJHtoblz-116" value="&lt;font style=&quot;font-size: 17px&quot;&gt;QQ群基础按钮配置&lt;/font&gt;" style="shape=hexagon;perimeter=hexagonPerimeter2;whiteSpace=wrap;html=1;fixedSize=1;rounded=1;strokeColor=#d79b00;fillColor=#ffe6cc;" parent="WIyWlLk6GJQsqaUBKTNV-1" vertex="1">
          <mxGeometry x="920" y="240" width="190" height="60" as="geometry" />
        </mxCell>
        <mxCell id="8bZSMwI0g8y9zJHtoblz-125" value="&lt;font style=&quot;font-size: 17px&quot;&gt;QQ群悬浮按钮配置&lt;/font&gt;" style="shape=hexagon;perimeter=hexagonPerimeter2;whiteSpace=wrap;html=1;fixedSize=1;rounded=1;strokeColor=#d79b00;fillColor=#ffe6cc;" parent="WIyWlLk6GJQsqaUBKTNV-1" vertex="1">
          <mxGeometry x="920" y="340" width="190" height="60" as="geometry" />
        </mxCell>
        <mxCell id="8bZSMwI0g8y9zJHtoblz-40" value="edit.vue初始化" style="shape=hexagon;perimeter=hexagonPerimeter2;whiteSpace=wrap;html=1;fixedSize=1;fontSize=18;fillColor=#dae8fc;strokeColor=#6c8ebf;" parent="WIyWlLk6GJQsqaUBKTNV-1" vertex="1">
          <mxGeometry x="557.75" y="910" width="161.5" height="80" as="geometry" />
        </mxCell>
        <mxCell id="8bZSMwI0g8y9zJHtoblz-154" value="" style="endArrow=classic;startArrow=classic;html=1;strokeColor=#857135;" parent="WIyWlLk6GJQsqaUBKTNV-1" edge="1">
          <mxGeometry width="50" height="50" relative="1" as="geometry">
            <mxPoint x="260" y="950" as="sourcePoint" />
            <mxPoint x="540" y="950" as="targetPoint" />
          </mxGeometry>
        </mxCell>
        <mxCell id="8bZSMwI0g8y9zJHtoblz-158" value="" style="edgeStyle=orthogonalEdgeStyle;rounded=0;orthogonalLoop=1;jettySize=auto;html=1;strokeColor=#857135;" parent="WIyWlLk6GJQsqaUBKTNV-1" source="8bZSMwI0g8y9zJHtoblz-155" target="8bZSMwI0g8y9zJHtoblz-157" edge="1">
          <mxGeometry relative="1" as="geometry" />
        </mxCell>
        <mxCell id="8bZSMwI0g8y9zJHtoblz-160" value="" style="edgeStyle=orthogonalEdgeStyle;rounded=0;orthogonalLoop=1;jettySize=auto;html=1;strokeColor=#857135;" parent="WIyWlLk6GJQsqaUBKTNV-1" source="8bZSMwI0g8y9zJHtoblz-155" target="8bZSMwI0g8y9zJHtoblz-159" edge="1">
          <mxGeometry relative="1" as="geometry">
            <Array as="points">
              <mxPoint x="2240" y="948" />
              <mxPoint x="2240" y="1080" />
            </Array>
          </mxGeometry>
        </mxCell>
        <mxCell id="8bZSMwI0g8y9zJHtoblz-155" value="h5端&lt;br&gt;QQ直达链接" style="whiteSpace=wrap;html=1;fontSize=18;strokeColor=#36393d;strokeWidth=2;fillColor=#cdeb8b;" parent="WIyWlLk6GJQsqaUBKTNV-1" vertex="1">
          <mxGeometry x="2090" y="918" width="120" height="60" as="geometry" />
        </mxCell>
        <mxCell id="8bZSMwI0g8y9zJHtoblz-175" value="" style="edgeStyle=orthogonalEdgeStyle;rounded=0;orthogonalLoop=1;jettySize=auto;html=1;strokeColor=#857135;" parent="WIyWlLk6GJQsqaUBKTNV-1" source="8bZSMwI0g8y9zJHtoblz-157" target="8bZSMwI0g8y9zJHtoblz-174" edge="1">
          <mxGeometry relative="1" as="geometry" />
        </mxCell>
        <mxCell id="8bZSMwI0g8y9zJHtoblz-157" value="QQ直达链接组&lt;br&gt;件渲染" style="whiteSpace=wrap;html=1;fontSize=18;strokeColor=#36393d;strokeWidth=2;fillColor=#cdeb8b;" parent="WIyWlLk6GJQsqaUBKTNV-1" vertex="1">
          <mxGeometry x="2290" y="917" width="160" height="62" as="geometry" />
        </mxCell>
        <mxCell id="8bZSMwI0g8y9zJHtoblz-178" value="" style="edgeStyle=orthogonalEdgeStyle;rounded=0;orthogonalLoop=1;jettySize=auto;html=1;strokeColor=#857135;" parent="WIyWlLk6GJQsqaUBKTNV-1" source="8bZSMwI0g8y9zJHtoblz-159" edge="1">
          <mxGeometry relative="1" as="geometry">
            <mxPoint x="2570" y="950" as="targetPoint" />
            <Array as="points">
              <mxPoint x="2570" y="1095" />
            </Array>
          </mxGeometry>
        </mxCell>
        <mxCell id="8bZSMwI0g8y9zJHtoblz-159" value="拿到QQ群号转成Schema再进行打开QQ群" style="whiteSpace=wrap;html=1;fontSize=18;strokeColor=#36393d;strokeWidth=2;fillColor=#cdeb8b;" parent="WIyWlLk6GJQsqaUBKTNV-1" vertex="1">
          <mxGeometry x="2290" y="1050" width="230" height="90" as="geometry" />
        </mxCell>
        <mxCell id="8bZSMwI0g8y9zJHtoblz-168" value="" style="edgeStyle=orthogonalEdgeStyle;rounded=0;orthogonalLoop=1;jettySize=auto;html=1;strokeColor=#857135;" parent="WIyWlLk6GJQsqaUBKTNV-1" source="8bZSMwI0g8y9zJHtoblz-165" edge="1">
          <mxGeometry relative="1" as="geometry">
            <mxPoint x="2080" y="948" as="targetPoint" />
          </mxGeometry>
        </mxCell>
        <mxCell id="8bZSMwI0g8y9zJHtoblz-172" value="" style="edgeStyle=orthogonalEdgeStyle;rounded=0;orthogonalLoop=1;jettySize=auto;html=1;strokeColor=#857135;" parent="WIyWlLk6GJQsqaUBKTNV-1" source="8bZSMwI0g8y9zJHtoblz-165" target="8bZSMwI0g8y9zJHtoblz-171" edge="1">
          <mxGeometry relative="1" as="geometry" />
        </mxCell>
        <mxCell id="8bZSMwI0g8y9zJHtoblz-165" value="保存或送审" style="whiteSpace=wrap;html=1;fontSize=18;strokeColor=#6c8ebf;strokeWidth=2;fillColor=#dae8fc;" parent="WIyWlLk6GJQsqaUBKTNV-1" vertex="1">
          <mxGeometry x="1840" y="918" width="120" height="60" as="geometry" />
        </mxCell>
        <mxCell id="8bZSMwI0g8y9zJHtoblz-169" value="json_code" style="text;html=1;align=center;verticalAlign=middle;resizable=0;points=[];autosize=1;" parent="WIyWlLk6GJQsqaUBKTNV-1" vertex="1">
          <mxGeometry x="1980" y="920" width="70" height="20" as="geometry" />
        </mxCell>
        <mxCell id="8bZSMwI0g8y9zJHtoblz-171" value="QQ群号的校验提示" style="ellipse;whiteSpace=wrap;html=1;fontSize=18;strokeColor=#6c8ebf;strokeWidth=2;fillColor=#dae8fc;" parent="WIyWlLk6GJQsqaUBKTNV-1" vertex="1">
          <mxGeometry x="1810" y="760" width="180" height="78" as="geometry" />
        </mxCell>
        <mxCell id="8bZSMwI0g8y9zJHtoblz-174" value="用户点击一次按钮，前端上&lt;br&gt;报有效咨询+1" style="ellipse;whiteSpace=wrap;html=1;fontSize=18;strokeColor=#36393d;strokeWidth=2;fillColor=#cdeb8b;" parent="WIyWlLk6GJQsqaUBKTNV-1" vertex="1">
          <mxGeometry x="2640" y="908" width="280" height="80" as="geometry" />
        </mxCell>
        <mxCell id="SldNwyMm6oitLgwPxyxu-12" value="property" style="whiteSpace=wrap;html=1;fontSize=18;strokeColor=#6c8ebf;strokeWidth=2;fillColor=#dae8fc;" vertex="1" parent="WIyWlLk6GJQsqaUBKTNV-1">
          <mxGeometry x="241.5" y="410" width="120" height="60" as="geometry" />
        </mxCell>
        <mxCell id="SldNwyMm6oitLgwPxyxu-13" value="&amp;nbsp; &amp;nbsp;v-model" style="text;html=1;align=center;verticalAlign=middle;resizable=0;points=[];autosize=1;fontSize=18;" vertex="1" parent="WIyWlLk6GJQsqaUBKTNV-1">
          <mxGeometry x="91.5" y="402" width="90" height="30" as="geometry" />
        </mxCell>
        <mxCell id="SldNwyMm6oitLgwPxyxu-14" value="" style="endArrow=classic;startArrow=classic;html=1;fontSize=18;" edge="1" parent="WIyWlLk6GJQsqaUBKTNV-1">
          <mxGeometry width="50" height="50" relative="1" as="geometry">
            <mxPoint x="71.50000000000045" y="440" as="sourcePoint" />
            <mxPoint x="221.50000000000045" y="440" as="targetPoint" />
          </mxGeometry>
        </mxCell>
        <mxCell id="SldNwyMm6oitLgwPxyxu-15" value="更新配置" style="text;html=1;align=center;verticalAlign=middle;resizable=0;points=[];autosize=1;fontSize=18;" vertex="1" parent="WIyWlLk6GJQsqaUBKTNV-1">
          <mxGeometry x="106.5" y="450" width="90" height="30" as="geometry" />
        </mxCell>
        <mxCell id="SldNwyMm6oitLgwPxyxu-16" value="" style="edgeStyle=orthogonalEdgeStyle;rounded=0;orthogonalLoop=1;jettySize=auto;html=1;strokeColor=#36393d;fillColor=#cdeb8b;" edge="1" parent="WIyWlLk6GJQsqaUBKTNV-1" source="SldNwyMm6oitLgwPxyxu-17" target="SldNwyMm6oitLgwPxyxu-19">
          <mxGeometry relative="1" as="geometry">
            <Array as="points">
              <mxPoint x="-10" y="110" />
              <mxPoint x="-10" y="200" />
            </Array>
          </mxGeometry>
        </mxCell>
        <mxCell id="SldNwyMm6oitLgwPxyxu-17" value="&lt;font style=&quot;font-size: 18px&quot;&gt;按钮&lt;/font&gt;" style="rounded=1;whiteSpace=wrap;html=1;fillColor=#cdeb8b;strokeColor=#36393d;" vertex="1" parent="WIyWlLk6GJQsqaUBKTNV-1">
          <mxGeometry x="-170" y="80" width="120" height="60" as="geometry" />
        </mxCell>
        <mxCell id="SldNwyMm6oitLgwPxyxu-18" value="微信按钮" style="ellipse;whiteSpace=wrap;html=1;rounded=1;fillColor=#cdeb8b;strokeColor=#36393d;" vertex="1" parent="WIyWlLk6GJQsqaUBKTNV-1">
          <mxGeometry x="30" y="-40" width="120" height="80" as="geometry" />
        </mxCell>
        <mxCell id="SldNwyMm6oitLgwPxyxu-19" value="qq按钮" style="ellipse;whiteSpace=wrap;html=1;rounded=1;fillColor=#cdeb8b;strokeColor=#36393d;" vertex="1" parent="WIyWlLk6GJQsqaUBKTNV-1">
          <mxGeometry x="30" y="150" width="120" height="80" as="geometry" />
        </mxCell>
        <mxCell id="SldNwyMm6oitLgwPxyxu-20" value="" style="edgeStyle=orthogonalEdgeStyle;rounded=0;orthogonalLoop=1;jettySize=auto;html=1;fillColor=#cdeb8b;strokeColor=#36393d;" edge="1" parent="WIyWlLk6GJQsqaUBKTNV-1" source="SldNwyMm6oitLgwPxyxu-17" target="SldNwyMm6oitLgwPxyxu-18">
          <mxGeometry relative="1" as="geometry">
            <Array as="points">
              <mxPoint x="-10" y="110" />
              <mxPoint x="-10" />
            </Array>
          </mxGeometry>
        </mxCell>
        <mxCell id="SldNwyMm6oitLgwPxyxu-21" value="" style="endArrow=none;html=1;edgeStyle=orthogonalEdgeStyle;strokeColor=#36393d;fillColor=#cdeb8b;exitX=1;exitY=0.5;exitDx=0;exitDy=0;" edge="1" parent="WIyWlLk6GJQsqaUBKTNV-1" source="SldNwyMm6oitLgwPxyxu-19">
          <mxGeometry width="50" height="50" relative="1" as="geometry">
            <mxPoint x="190" y="200" as="sourcePoint" />
            <mxPoint x="150" as="targetPoint" />
            <Array as="points">
              <mxPoint x="190" y="190" />
              <mxPoint x="190" />
            </Array>
          </mxGeometry>
        </mxCell>
        <mxCell id="SldNwyMm6oitLgwPxyxu-22" value="&lt;font style=&quot;font-size: 18px&quot;&gt;WeChat.vue&lt;/font&gt;" style="shape=step;perimeter=stepPerimeter;whiteSpace=wrap;html=1;fixedSize=1;fillColor=#dae8fc;strokeColor=#6c8ebf;" vertex="1" parent="WIyWlLk6GJQsqaUBKTNV-1">
          <mxGeometry x="-107.5" y="390" width="170" height="90" as="geometry" />
        </mxCell>
        <mxCell id="SldNwyMm6oitLgwPxyxu-23" value="" style="endArrow=classic;html=1;edgeStyle=orthogonalEdgeStyle;exitX=0;exitY=0.5;exitDx=0;exitDy=0;strokeColor=#1A1A1A;" edge="1" parent="WIyWlLk6GJQsqaUBKTNV-1" source="SldNwyMm6oitLgwPxyxu-22">
          <mxGeometry width="50" height="50" relative="1" as="geometry">
            <mxPoint x="-210" y="430" as="sourcePoint" />
            <mxPoint x="200" y="80" as="targetPoint" />
            <Array as="points">
              <mxPoint x="-210" y="435" />
              <mxPoint x="-210" y="330" />
              <mxPoint x="310" y="330" />
              <mxPoint x="310" y="80" />
            </Array>
          </mxGeometry>
        </mxCell>
        <mxCell id="SldNwyMm6oitLgwPxyxu-28" value="" style="endArrow=classic;html=1;strokeColor=#1A1A1A;" edge="1" parent="WIyWlLk6GJQsqaUBKTNV-1">
          <mxGeometry width="50" height="50" relative="1" as="geometry">
            <mxPoint x="-190" y="435" as="sourcePoint" />
            <mxPoint x="-90" y="435" as="targetPoint" />
          </mxGeometry>
        </mxCell>
      </root>
    </mxGraphModel>
  </diagram>
</mxfile>
